<?xml version="1.0" encoding="utf-8"?>
<!-- Generator: Adobe Illustrator 24.3.0, SVG Export Plug-In . SVG Version: 6.00 Build 0)  -->
<svg version="1.1" id="Layer_1" xmlns="http://www.w3.org/2000/svg" xmlns:xlink="http://www.w3.org/1999/xlink" x="0px" y="0px"
	 viewBox="0 0 1200 1200" style="enable-background:new 0 0 1200 1200;" xml:space="preserve">
<style type="text/css">
	.st0{stroke:#000000;stroke-miterlimit:10;}
</style>
<path class="st0" d="M824.35,501.61h-448.7c-27.5,0-50,22.5-50,50V840.1c0,27.5,22.5,50,50,50c44.97,0,89.94,0,134.91,0
	c0.45,0.02,5.24,0.19,8.27-3.71c2.46-3.16,1.99-6.75,1.89-7.4c0-53.98,0-107.95,0-161.93c0-0.81,0.1-5.05,3.53-8.47
	c2.17-2.18,5.17-3.53,8.47-3.53h128.95c6.6,0,12,5.4,12,12c0,54.24,0,108.48,0,162.72c-0.07,0.61-0.42,3.96,1.96,6.91
	c2.67,3.3,6.59,3.4,7.12,3.41c47.2,0,94.4,0,141.6,0c3.36-0.01,21.03-0.4,35.31-14.69c9.06-9.06,14.69-21.56,14.69-35.31V551.61
	C874.35,524.11,851.85,501.61,824.35,501.61z"/>
<path class="st0" d="M596.41,634.49c-81.72-42.13-163.43-84.26-245.15-126.4c74.42-39.03,148.84-78.06,223.26-117.1
	c4.28-2.2,13.19-6.04,24.91-5.78c9.33,0.21,16.51,2.93,20.61,4.86c74.36,38.34,148.72,76.68,223.09,115.02
	C760.88,548.22,678.65,591.35,596.41,634.49z"/>
<path class="st0" d="M610.9,326.41c-18.71,9.78-37.41,19.56-56.12,29.33c-82.91,43.34-165.82,86.68-248.73,130.02
	c-1.88,0.98-11.85,5.91-24,2.11c-7.7-2.41-14.49-7.75-18.5-15.43l0,0c-8.02-15.35-2.03-34.48,13.32-42.5l304.84-159.36
	c15.35-8.02,34.48-2.03,42.5,13.32v0C632.24,299.26,626.25,318.38,610.9,326.41z"/>
<path class="st0" d="M888.32,485.76C801.38,440.38,714.44,395,627.5,349.62c-5.25-2.77-15.42-7.24-28.92-7.57
	c-16.23-0.4-28.29,5.4-33.58,8.36c0.86-13.96,1.87-28.13,3.05-42.49c0.66-8.07,1.36-16.07,2.11-24v0
	c8.02-15.35,27.15-21.34,42.5-13.32L917.5,429.94c15.35,8.02,21.34,27.15,13.32,42.5v0C922.8,487.79,903.67,493.79,888.32,485.76z"
	/>
<rect x="473.84" y="678.95" class="st0" width="239.41" height="211.16"/>
</svg>
