<svg id="Layer_1" data-name="Layer 1" xmlns="http://www.w3.org/2000/svg" viewBox="0 0 293.56 535.19"><defs><style>.cls-1,.cls-2{fill:#1d1d1b;}.cls-1,.cls-3{stroke:#000;stroke-miterlimit:10;stroke-width:10px;}.cls-3{fill:#fff;}</style></defs><path class="cls-1" d="M729.63,632.32a21.43,21.43,0,0,0,2.35-7.83c2.34-18.12,6.14-36,8.2-54.21a13.5,13.5,0,0,0-.37-5.59c-2.13-7.3-10.32-10.5-11.28-10.86a34.25,34.25,0,0,0-6.86-1.32h0s-1.52-.15-3-.27c-4.13-.34-14.55,0-14.55,0-.45,0,.1,0-14.72,0H676.88c-3.76.32-7.55-.2-11.31,0a11.27,11.27,0,0,1-2.91-.17,13.38,13.38,0,0,1-5.24-2.58c-5-4.18-3.26-27.6-3.66-47.57,0-2.42-.14-5.61.11-10.14.39-7,.76-13.57,3.39-20.63a41.29,41.29,0,0,1,9.7-15.55c12.29-11.93,31-13.44,39.24-13.57a151.41,151.41,0,0,0,19.56-1.56c12.18-1.77,14.49-3.64,15.67-4.84,3.09-3.17,3.59-7.84,4.47-17a130.63,130.63,0,0,0,.5-17.53c.14-8.33-.1-15.25-.37-20.27-.59-10.73-1.34-13-3-15s-4.54-4-18-5.84a184,184,0,0,0-19.13-1.68c-26.55-.87-22.28-1.57-31-1.36a166.84,166.84,0,0,0-34.64,4,114.7,114.7,0,0,0-22.37,7,103.55,103.55,0,0,0-29.67,19.95,106.17,106.17,0,0,0-26.52,41.59c-2.93,8.6-4.14,16.08-5.35,23.5a198.09,198.09,0,0,0-2.53,28.69c-.14,9.7-.43,46.08,0,58.14a11,11,0,0,1-.65,4.26c-1.62,4.37-5.77,6.43-6.57,6.82a14,14,0,0,1-4.91,1.29c-9.57.8-31.73-1-46.87.11-3.84.28-6.72.58-10.07,2.13-1,.46-9.28,4.42-11.69,12.8a18.1,18.1,0,0,0-.63,5.84c.4,12.67.1,41,0,49.48a22.09,22.09,0,0,0,.63,6.22,22.33,22.33,0,0,0,13.68,15.16,18.52,18.52,0,0,0,5.71,1c14.83.39,33.47-.51,45.63.16a16.78,16.78,0,0,1,5.09,1.05c.58.22,7,2.77,9.58,9.2a15.16,15.16,0,0,1,1,4.43c.78,11.1-.64,176.57.07,189.63a26.49,26.49,0,0,0,1.79,8.08c.79,2,3,7.6,7.95,10.19a15.07,15.07,0,0,0,9,1.26c1.25-.14,21.93-.09,63.29,0a16.78,16.78,0,0,0,9.19-2.25c4.21-2.63,6.12-7,7-9a25.94,25.94,0,0,0,2-9.32c.34-10.81-.33-180.39,0-189.72a13.54,13.54,0,0,1,1.14-5c2.58-5.73,8.68-7.78,9.2-8a15,15,0,0,1,3.73-.69c10.37-.61,24.73.81,36.92-.06,8.66-.61,12.13-2.09,13.79-2.89A23.74,23.74,0,0,0,729.63,632.32Z" transform="translate(-457.94 -338.89)"/><path class="cls-2" d="M747.43,363.31l-9.58,7.51-10.3-14.54,10.13-6.41Z" transform="translate(-457.94 -338.89)"/><path class="cls-2" d="M742.24,558.32,732.66,565,723,551.88l9.52-7Z" transform="translate(-457.94 -338.89)"/><path class="cls-2" d="M481.14,631.11l-8.74,7.69-10.49-14.47,9.63-6.81Z" transform="translate(-457.94 -338.89)"/><path class="cls-2" d="M562.89,857.84l-7.79,9.07-10.41-14.38,9.64-6.81Z" transform="translate(-457.94 -338.89)"/><path class="cls-3" d="M737,388.11c.14-8.32-.1-15.24-.37-20.26-.59-10.74-1.34-13.05-3-15s-4.54-4-18-5.84a185.42,185.42,0,0,0-19.13-1.69c-26.55-.87-22.28-1.56-31-1.35a166.15,166.15,0,0,0-34.64,4,114.7,114.7,0,0,0-22.37,7,103.11,103.11,0,0,0-29.67,19.95,106.17,106.17,0,0,0-26.52,41.59c-2.93,8.6-4.14,16.08-5.35,23.49a198.32,198.32,0,0,0-2.53,28.7c-.14,9.7-.43,46.08,0,58.14a11,11,0,0,1-.65,4.26c-1.62,4.37-5.77,6.43-6.57,6.82a14,14,0,0,1-4.91,1.29c-9.57.8-31.73-1-46.87.11-3.84.27-6.72.58-10.07,2.12-1,.47-9.28,4.43-11.69,12.81A18.1,18.1,0,0,0,463,560c.4,12.67.1,41,0,49.48a22.09,22.09,0,0,0,.63,6.22,22.33,22.33,0,0,0,13.68,15.16,18.84,18.84,0,0,0,5.71,1c14.83.39,33.47-.51,45.63.16a16.78,16.78,0,0,1,5.09,1c.58.22,7,2.77,9.58,9.2a15.16,15.16,0,0,1,1,4.43c.78,11.1-.64,176.56.07,189.62a26.37,26.37,0,0,0,1.79,8.08c.79,2,3,7.6,8,10.2a15.23,15.23,0,0,0,8.95,1.26c1.25-.14,21.93-.09,63.29,0a16.72,16.72,0,0,0,9.19-2.26c4.21-2.62,6.12-7,7-8.95a25.94,25.94,0,0,0,2-9.32c.34-10.81-.33-180.39.05-189.72a13.54,13.54,0,0,1,1.14-5c2.58-5.73,8.68-7.79,9.2-8a14.49,14.49,0,0,1,3.73-.69c10.37-.61,24.73.8,36.92-.06,8.66-.61,12.13-2.09,13.79-2.89,2-1,7.57-3.74,10.84-9.78a21.43,21.43,0,0,0,2.35-7.83c2.34-18.13,6.14-36,8.2-54.21a13.55,13.55,0,0,0-.37-5.6c-2.13-7.3-10.32-10.49-11.28-10.85a34.93,34.93,0,0,0-6.86-1.33h0l-3-.26c-4.13-.34-14.55,0-14.55,0-.45,0,.1,0-14.72,0H667.44c-3.76.31-7.55-.2-11.31,0a11.41,11.41,0,0,1-2.91-.18,13.27,13.27,0,0,1-5.24-2.57c-5.05-4.18-3.26-27.6-3.66-47.57-.05-2.43-.14-5.62.11-10.15.39-7,.76-13.56,3.39-20.62a41.29,41.29,0,0,1,9.69-15.55c12.3-11.93,31-13.44,39.25-13.57a151.57,151.57,0,0,0,19.56-1.56c12.17-1.77,14.49-3.64,15.67-4.85,3.09-3.17,3.59-7.83,4.47-17A130.57,130.57,0,0,0,737,388.11Z" transform="translate(-457.94 -338.89)"/></svg>