<svg id="Layer_1" data-name="Layer 1" xmlns="http://www.w3.org/2000/svg" viewBox="0 0 1781.84 2715.47"><defs><style>.cls-1,.cls-2{fill:#fff;}.cls-1{stroke:#fff;stroke-miterlimit:10;}</style></defs><circle class="cls-1" cx="1584.94" cy="1458.55" r="196.4"/><circle class="cls-1" cx="1584.94" cy="2269.79" r="196.4"/><circle class="cls-1" cx="1584.94" cy="647.31" r="196.4"/><line class="cls-2" x1="953.87" y1="382.5" x2="382.73" y2="1014.58"/><path class="cls-2" d="M1218.24,254.3l-15.32,16.95-41.48,45.91-61.59,68.16L1025,468.14l-82.29,91.07L860,650.78,782.53,736.5l-65.19,72.15-47.07,52.09q-11.1,12.28-22.2,24.57l-1,1.07q-56,52-79.08,123.09-35.92,68.38-32.95,147.37-3,79,32.95,147.37,23.13,71.13,79.08,123.1l77.42,59.81Q814,1539,917.57,1539.34l101.69-13.66q97.18-27.26,168.78-98.37l15.32-17,41.49-45.9,61.58-68.16,74.83-82.82,82.3-91.07,82.74-91.57,77.45-85.72L1689,873,1736,820.87l22.21-24.57,1-1.07q56-52,79.09-123.1,35.93-68.37,32.94-147.37,3-79-32.94-147.36-23.14-71.13-79.09-123.1l-77.41-59.81q-89.49-51.9-193.06-52.23L1387,155.93a382.1,382.1,0,0,0-168.79,98.37Z" transform="translate(-534.84 -142.26)"/><line class="cls-2" x1="953.87" y1="1700.89" x2="382.73" y2="2332.97"/><path class="cls-2" d="M1218.24,1572.69l-15.32,17-41.48,45.9-61.59,68.16L1025,1786.53l-82.29,91.07L860,1969.17l-77.46,85.72L717.34,2127l-47.07,52.09q-11.1,12.28-22.2,24.57l-1,1.07q-56,52-79.08,123.1-35.92,68.37-32.95,147.37-3,79,32.95,147.36,23.13,71.13,79.08,123.1l77.42,59.81q89.49,51.9,193.05,52.23l101.69-13.67q97.18-27.26,168.78-98.37l15.32-16.95,41.49-45.91,61.58-68.16,74.83-82.82,82.3-91.07,82.74-91.57,77.45-85.72,65.2-72.15,47.06-52.09q11.12-12.28,22.21-24.57l1-1.07q56-52,79.09-123.09,35.93-68.38,32.94-147.37,3-79-32.94-147.37-23.14-71.13-79.09-123.1l-77.41-59.81q-89.49-51.9-193.06-52.22L1387,1474.32a382.1,382.1,0,0,0-168.79,98.37Z" transform="translate(-534.84 -142.26)"/></svg>